PathFileType	4	(X/Y/Z)	s07c0302.trc
DataRate	CameraRate	NumFrames	NumMarkers	Units	OrigDataRate	OrigDataStartFrame	OrigNumFrames
200	200	5	48	mm	200	1500	2000
Frame#	Time	racr			lacr			c7			jug			rlel			rdr			llel			ldr			s2			lic			ric			lasi			rasi			rpsi			lpsi			rgt			lgt			rth1			rth2			rth3			rth4			rlfc			rmfc			rsh1			rsh2			rsh3			rsh4			rlmal			rcal			rtoe			rmt5			lth1			lth2			lth4			lth3			llfc			lmfc			lsh1			lsh2			lsh3			lsh4			llmal			lcal			ltoe			lmt5			SBIKE			LBIKE			RBIKE			
		X1	Y1	Z1	X2	Y2	Z2	X3	Y3	Z3	X4	Y4	Z4	X5	Y5	Z5	X6	Y6	Z6	X7	Y7	Z7	X8	Y8	Z8	X9	Y9	Z9	X10	Y10	Z10	X11	Y11	Z11	X12	Y12	Z12	X13	Y13	Z13	X14	Y14	Z14	X15	Y15	Z15	X16	Y16	Z16	X17	Y17	Z17	X18	Y18	Z18	X19	Y19	Z19	X20	Y20	Z20	X21	Y21	Z21	X22	Y22	Z22	X23	Y23	Z23	X24	Y24	Z24	X25	Y25	Z25	X26	Y26	Z26	X27	Y27	Z27	X28	Y28	Z28	X29	Y29	Z29	X30	Y30	Z30	X31	Y31	Z31	X32	Y32	Z32	X33	Y33	Z33	X34	Y34	Z34	X35	Y35	Z35	X36	Y36	Z36	X37	Y37	Z37	X38	Y38	Z38	X39	Y39	Z39	X40	Y40	Z40	X41	Y41	Z41	X42	Y42	Z42	X43	Y43	Z43	X44	Y44	Z44	X45	Y45	Z45	X46	Y46	Z46	X47	Y47	Z47	X48	Y48	Z48	
1500	7.5000	832.581293	1360.914212	-138.048155	788.876890	1381.858764	-454.607491	814.040950	1428.415094	-295.698028	746.365444	1291.823766	-300.028231	596.732112	1139.297776	26.023810	726.221760	908.676089	-70.620090	560.943453	1122.984238	-536.368736	722.536256	909.177727	-423.760581	212.052710	1288.267373	-220.619764	357.243530	1321.959135	-374.108098	413.342672	1274.268469	-101.095153	370.155649	1240.089226	-368.032394	412.354394	1217.871417	-121.718440	259.553318	1318.167522	-169.081898	249.166925	1334.375592	-278.267835	324.592213	1152.497750	-57.635060	275.065957	1183.426924	-414.636122	378.337171	1000.539325	-63.807296	411.989256	920.314034	-76.267410	408.280623	834.861379	-71.240662	442.075921	927.126358	-95.574547	404.970743	698.723573	-99.285009	385.995118	688.507563	-199.621479	294.238273	610.689608	-67.802440	243.813798	540.110312	-81.926416	165.144636	500.557986	-75.176589	253.632540	529.619986	-121.095675	55.066495	412.013190	-72.280299	-8.644403	448.868166	-100.926679	118.304938	184.759785	-126.603041	52.155977	233.911452	-55.378068	348.762733	1083.170880	-424.925085	425.696129	1040.412560	-432.920407	452.225323	1065.085300	-425.251177	471.353283	963.842705	-432.779712	582.201562	818.650265	-406.597660	576.349393	803.663789	-307.715461	484.691429	704.551978	-422.411272	444.658436	630.802144	-401.116186	368.852105	581.433955	-404.120968	449.880277	632.039648	-359.040091	271.033677	490.341793	-401.393903	188.245717	476.268997	-368.714965	455.552720	365.250590	-364.599918	371.796185	366.826873	-430.289673	-261.731740	967.365956	-238.143945	-82.908027	79.382648	-437.026987	-82.840201	79.723672	-39.352906	
1501	7.5050	830.531739	1362.294197	-137.537317	787.539425	1381.959889	-454.164441	812.243306	1428.768457	-295.188361	744.723095	1292.362718	-299.289042	596.385346	1139.047968	26.481328	726.139435	908.480844	-70.400567	560.000326	1122.714068	-535.921287	722.373535	909.245527	-423.417665	210.436957	1288.025049	-219.908303	352.212630	1322.776015	-384.267025	411.690657	1274.930864	-101.278544	368.004702	1239.608370	-368.459777	411.179796	1218.794161	-122.017108	257.093023	1317.220983	-169.495260	247.408946	1334.072500	-278.204362	324.939820	1152.657011	-57.589210	271.969340	1182.155504	-413.866439	382.210751	1002.468630	-64.815926	417.444077	923.046889	-77.667873	415.609276	837.529915	-72.458476	447.222172	930.380651	-97.186179	412.792840	701.314538	-100.064423	393.310907	691.315939	-200.513222	300.354462	614.892617	-68.765044	248.957697	545.071477	-82.641139	169.603635	506.798369	-75.793075	258.157798	534.168076	-122.190880	58.302508	420.735862	-72.506954	-5.450960	457.333531	-104.466607	112.537913	190.647679	-127.941508	49.493308	242.966146	-55.249248	344.284935	1080.462190	-424.406999	420.460407	1036.462323	-433.112322	446.605808	1061.131043	-426.705721	464.941418	959.222014	-432.763385	574.266700	812.730843	-407.003027	568.789349	797.586096	-308.990904	478.345605	696.553776	-422.708655	440.394951	621.972738	-401.435107	365.971231	570.860115	-404.695117	445.517852	623.261178	-359.368091	270.673156	477.515845	-401.549152	188.466489	462.608197	-368.358743	457.685079	356.676336	-365.141392	373.472385	356.563875	-430.592764	-261.689934	967.312101	-238.114992	-82.923486	79.289347	-436.963822	-82.790866	79.601594	-39.409987	
1502	7.5100	828.479961	1363.796704	-136.942613	786.259741	1382.065685	-453.780652	810.281828	1429.145653	-293.950095	743.300319	1292.795748	-298.321014	596.111987	1138.892667	26.878719	726.039375	908.362744	-70.212597	559.136789	1122.478688	-535.586446	722.271941	909.351390	-423.239578	208.776586	1287.645288	-219.282852	350.035984	1321.963592	-384.546881	410.034516	1275.367463	-101.483478	365.738814	1238.950888	-368.786245	409.948686	1219.579142	-122.335322	254.401746	1315.355084	-170.413967	245.730856	1333.609295	-278.324185	325.283098	1153.058538	-57.610322	268.914252	1180.800965	-413.008160	385.827243	1004.625102	-65.762613	422.587351	925.880485	-78.839780	422.490276	840.449937	-73.592728	452.105583	933.837157	-98.465907	420.554388	703.970701	-100.867684	400.420941	694.214680	-201.507884	306.640762	619.021424	-69.644565	254.151097	550.043155	-83.266797	174.240970	513.045478	-76.348890	263.613026	538.926412	-122.387377	61.960822	429.226907	-72.633448	-1.469241	466.730871	-106.614935	108.663445	197.742296	-127.937122	47.286229	252.202777	-55.297944	339.886525	1077.568880	-423.906677	415.274238	1032.426424	-433.351032	441.527594	1056.706961	-428.295297	458.561637	954.415818	-432.730345	566.066756	806.862072	-407.840797	561.305341	791.610392	-310.228887	471.910725	689.062092	-423.488875	436.048510	613.366306	-401.859068	362.907470	560.430347	-404.941038	441.171890	615.031201	-359.843167	270.150552	465.068805	-401.472890	188.032264	449.510920	-368.219758	459.239051	347.480056	-365.409420	374.936956	346.046116	-430.595694	-261.665414	967.291279	-238.115860	-82.900334	79.319268	-437.022622	-82.767049	79.563918	-39.426593	
1503	7.5150	826.388841	1365.480300	-136.279410	785.042448	1382.074991	-453.189816	808.425662	1429.629550	-293.336048	741.797566	1293.213623	-297.292331	595.862707	1138.806799	27.298710	727.502352	908.100742	-69.628661	558.424532	1122.177774	-535.249801	722.267807	909.420239	-423.076849	207.041296	1287.162194	-218.738805	347.782269	1321.067046	-384.865880	408.276786	1275.916899	-101.746475	363.626254	1238.216800	-369.294648	408.638957	1220.532831	-122.790429	252.132751	1314.191388	-170.976897	243.671750	1332.919532	-278.355898	325.601542	1153.582479	-57.621232	266.128536	1179.319331	-412.289455	389.192810	1006.793923	-66.475859	427.362257	928.772392	-79.021064	428.636024	843.525652	-74.859179	457.015123	937.008272	-100.238747	428.203770	706.854936	-101.691358	407.305319	697.296944	-202.503541	313.068568	623.127502	-70.514084	259.415174	554.935263	-83.890395	179.184808	518.973873	-76.962943	268.874613	543.522636	-122.953202	65.994719	437.670374	-72.613079	3.383933	477.214134	-107.054031	105.467946	205.253934	-127.840592	45.725722	261.529979	-55.423827	335.617866	1074.691984	-423.563007	410.172177	1028.285207	-433.536813	437.060986	1052.094113	-428.551205	452.175521	949.563372	-432.764662	557.876643	801.175826	-408.575422	554.001928	785.720509	-311.541364	465.641834	681.777661	-424.327739	431.641799	605.260754	-402.574336	359.830514	550.576777	-405.196754	436.970393	606.982534	-360.552116	269.477248	453.012099	-401.435859	188.099957	436.468387	-368.078171	460.165858	338.128184	-365.275382	375.971033	335.646741	-430.525955	-261.654314	967.288219	-238.154263	-82.952605	79.239778	-436.954512	-82.775985	79.542218	-39.420560	
1504	7.5200	824.255142	1367.421183	-135.732568	783.849002	1382.073830	-452.708310	806.490903	1430.138248	-292.644909	740.354092	1293.882990	-296.348541	595.582363	1138.746249	27.661161	727.472265	908.093305	-69.483899	557.859429	1121.801898	-535.014360	722.323413	909.446595	-422.965416	205.247316	1286.559833	-218.357717	345.694124	1320.075370	-385.288792	406.750511	1276.439416	-102.453678	361.471560	1237.397360	-369.705661	407.310079	1221.280563	-123.072844	250.194782	1313.554859	-171.307668	241.632432	1332.268440	-278.502877	325.753245	1154.184084	-57.591909	263.376047	1177.883378	-411.555550	392.220312	1009.061359	-66.965758	431.812721	931.709252	-79.724604	434.614960	846.508188	-75.698176	461.292348	940.558701	-100.843998	435.823468	709.738200	-102.539564	413.144792	701.306525	-203.629494	319.625380	627.268375	-71.364346	264.856351	559.754637	-84.593244	184.183293	525.070315	-77.412628	273.383248	547.646704	-124.568624	70.280138	446.141079	-72.565938	8.762867	487.891779	-107.122645	102.842042	212.891996	-128.034506	44.840336	271.071745	-55.471944	331.566519	1071.859885	-423.244696	404.972636	1023.864188	-433.073804	432.601069	1047.627976	-429.434234	445.790342	944.642816	-432.748332	549.585567	795.647342	-409.286436	546.666397	779.857274	-312.750083	459.496213	674.730253	-424.932767	427.236580	597.735151	-403.327889	356.650583	541.271132	-405.620169	432.647298	599.221281	-361.148631	268.526106	441.415941	-401.582555	187.521881	424.468884	-367.852080	460.660572	328.824476	-365.644151	376.358254	325.187994	-430.423446	-261.653832	967.293434	-238.188997	-82.898782	79.324837	-437.035126	-82.783882	79.570110	-39.419047	
